<svg width="40" height="40" viewBox="0 0 40 40" fill="none" xmlns="http://www.w3.org/2000/svg">
<g clip-path="url(#clip0_2889_1244)">
<path d="M20.5932 39.1858C15.3968 39.1858 10.4133 37.1215 6.73889 33.4472C3.0645 29.7728 1.00024 24.7892 1.00024 19.5928C1.00024 14.3965 3.0645 9.4129 6.73889 5.73851C10.4133 2.06412 15.3968 -0.00012207 20.5932 -0.00012207C25.7896 -0.00012207 30.7731 2.06412 34.4475 5.73851C38.1219 9.4129 40.1862 14.3965 40.1862 19.5928C40.1862 24.7892 38.1219 29.7728 34.4475 33.4472C30.7731 37.1215 25.7896 39.1858 20.5932 39.1858Z" fill="#4F4F4F"/>
<g clip-path="url(#clip1_2889_1244)">
<path d="M31.184 15.3811C31.1714 14.4344 30.9941 13.497 30.6602 12.6111C30.3706 11.8638 29.9284 11.1851 29.3617 10.6184C28.795 10.0517 28.1163 9.60939 27.369 9.31982C26.4944 8.99152 25.5704 8.814 24.6365 8.79482C23.434 8.74107 23.0527 8.72607 20.0002 8.72607C16.9477 8.72607 16.5565 8.72607 15.3627 8.79482C14.4292 8.81414 13.5056 8.99166 12.6315 9.31982C11.884 9.60919 11.2052 10.0514 10.6385 10.6181C10.0718 11.1849 9.62957 11.8636 9.34021 12.6111C9.01125 13.485 8.83411 14.4087 8.81646 15.3423C8.76271 16.5461 8.74646 16.9273 8.74646 19.9798C8.74646 23.0323 8.74646 23.4223 8.81646 24.6173C8.83521 25.5523 9.01146 26.4748 9.34021 27.3511C9.63006 28.0983 10.0726 28.7768 10.6395 29.3433C11.2064 29.9098 11.8853 30.3518 12.6327 30.6411C13.5045 30.9826 14.4282 31.1728 15.364 31.2036C16.5677 31.2573 16.949 31.2736 20.0015 31.2736C23.054 31.2736 23.4452 31.2736 24.639 31.2036C25.5729 31.1852 26.4969 31.0081 27.3715 30.6798C28.1186 30.3899 28.7971 29.9475 29.3638 29.3809C29.9304 28.8142 30.3728 28.1357 30.6627 27.3886C30.9915 26.5136 31.1677 25.5911 31.1865 24.6548C31.2402 23.4523 31.2565 23.0711 31.2565 20.0173C31.254 16.9648 31.254 16.5773 31.184 15.3811ZM19.9927 25.7523C16.8002 25.7523 14.214 23.1661 14.214 19.9736C14.214 16.7811 16.8002 14.1948 19.9927 14.1948C21.5253 14.1948 22.9952 14.8037 24.0789 15.8874C25.1626 16.9711 25.7715 18.441 25.7715 19.9736C25.7715 21.5062 25.1626 22.976 24.0789 24.0598C22.9952 25.1435 21.5253 25.7523 19.9927 25.7523ZM26.0015 15.3286C25.8245 15.3287 25.6492 15.294 25.4856 15.2263C25.322 15.1587 25.1734 15.0594 25.0483 14.9343C24.9231 14.8091 24.8239 14.6605 24.7562 14.4969C24.6885 14.3334 24.6538 14.1581 24.654 13.9811C24.654 13.8042 24.6888 13.6291 24.7565 13.4656C24.8242 13.3022 24.9234 13.1538 25.0485 13.0287C25.1735 12.9036 25.322 12.8044 25.4854 12.7367C25.6488 12.669 25.824 12.6342 26.0008 12.6342C26.1777 12.6342 26.3529 12.669 26.5163 12.7367C26.6797 12.8044 26.8282 12.9036 26.9532 13.0287C27.0783 13.1538 27.1775 13.3022 27.2452 13.4656C27.3129 13.6291 27.3477 13.8042 27.3477 13.9811C27.3477 14.7261 26.7452 15.3286 26.0015 15.3286Z" fill="#CFD1C8"/>
<path d="M19.9928 23.7273C22.0659 23.7273 23.7465 22.0467 23.7465 19.9736C23.7465 17.9005 22.0659 16.2198 19.9928 16.2198C17.9196 16.2198 16.239 17.9005 16.239 19.9736C16.239 22.0467 17.9196 23.7273 19.9928 23.7273Z" fill="#DCDCDC"/>
</g>
</g>
<defs>
<clipPath id="clip0_2889_1244">
<rect width="39.2478" height="39.2478" fill="white" transform="translate(0.495605)"/>
</clipPath>
<clipPath id="clip1_2889_1244">
<rect width="24" height="24" fill="white" transform="translate(8.00024 7.99988)"/>
</clipPath>
</defs>
</svg>
