<svg width="41" height="40" viewBox="0 0 41 40" fill="none" xmlns="http://www.w3.org/2000/svg">
<g clip-path="url(#clip0_2889_1254)">
<path d="M40.239 19.6239C40.239 8.78592 31.4531 0 20.6151 0C9.77713 0 0.991211 8.78592 0.991211 19.6239C0.991211 30.4619 9.77713 39.2478 20.6151 39.2478C31.4531 39.2478 40.239 30.4619 40.239 19.6239Z" fill="#4F4F4F"/>
<path d="M17.3977 24.2953V14.9525L25.6164 19.6239L17.3977 24.2953Z" fill="#4F4F4F"/>
<path d="M28.3761 12.3466C28.2125 12.2594 28.0533 12.1638 27.8991 12.0602C27.4505 11.7542 27.0392 11.3936 26.674 10.9863C25.7604 9.90767 25.4192 8.81345 25.2935 8.04734H25.2986C25.1936 7.41144 25.237 7 25.2435 7H21.0823V23.6023C21.0823 23.8252 21.0823 24.0455 21.0732 24.2632C21.0732 24.2903 21.0707 24.3153 21.0692 24.3444C21.0692 24.3564 21.0692 24.3689 21.0667 24.3814V24.3908C21.0228 24.9865 20.8377 25.5619 20.5277 26.0665C20.2177 26.5711 19.7923 26.9893 19.2889 27.2844C18.7642 27.5924 18.1708 27.7539 17.5672 27.7531C15.6284 27.7531 14.0571 26.122 14.0571 24.1075C14.0571 22.093 15.6284 20.4618 17.5672 20.4618C17.9342 20.4615 18.2989 20.5211 18.6479 20.6384L18.6529 16.2667C17.5936 16.1255 16.5174 16.2124 15.4923 16.5218C14.4672 16.8313 13.5153 17.3566 12.6968 18.0646C11.9795 18.7075 11.3766 19.4747 10.915 20.3316C10.7393 20.6441 10.0766 21.8998 9.99631 23.9377C9.94584 25.0944 10.2825 26.2928 10.443 26.7881V26.7985C10.544 27.0901 10.9352 28.0854 11.5727 28.9244C12.0867 29.5974 12.6941 30.1887 13.3752 30.679V30.6686L13.3853 30.679C15.3997 32.0915 17.6333 31.9988 17.6333 31.9988C18.0199 31.9826 19.3152 31.9988 20.786 31.2795C22.4174 30.4822 23.3461 29.2942 23.3461 29.2942C23.9395 28.5844 24.4113 27.7755 24.7413 26.9021C25.1178 25.8808 25.2435 24.6559 25.2435 24.1663V15.3584C25.294 15.3897 25.9663 15.8485 25.9663 15.8485C25.9663 15.8485 26.935 16.4891 28.4462 16.9063C29.5304 17.2031 30.9912 17.2656 30.9912 17.2656V13.0033C30.4794 13.0606 29.4401 12.894 28.3761 12.3466Z" fill="#CFD1C8"/>
</g>
<defs>
<clipPath id="clip0_2889_1254">
<rect width="39.2478" height="39.2478" fill="white" transform="translate(0.991211)"/>
</clipPath>
</defs>
</svg>
