<svg width="40" height="40" viewBox="0 0 40 40" fill="none" xmlns="http://www.w3.org/2000/svg">
<g clip-path="url(#clip0_2889_1241)">
<path d="M39.4956 19.6239C39.4956 8.78592 30.7097 0 19.8717 0C9.03372 0 0.247803 8.78592 0.247803 19.6239C0.247803 30.4619 9.03372 39.2478 19.8717 39.2478C30.7097 39.2478 39.4956 30.4619 39.4956 19.6239Z" fill="#4F4F4F"/>
<path d="M16.8812 31.4415H21.6557V19.4795H24.9968L25.3474 15.4681H21.6557V13.1892C21.6557 12.2508 21.8516 11.8692 22.7591 11.8692H25.3474V7.74438H22.0373C18.4899 7.74438 16.8812 9.31181 16.8812 12.3126V15.4991H14.396V19.562H16.8812V31.4415Z" fill="#CFD1C8"/>
</g>
<defs>
<clipPath id="clip0_2889_1241">
<rect width="39.2478" height="39.2478" fill="white" transform="translate(0.247803)"/>
</clipPath>
</defs>
</svg>
