<svg width="40" height="40" viewBox="0 0 40 40" fill="none" xmlns="http://www.w3.org/2000/svg">
<g clip-path="url(#clip0_2889_1238)">
<path d="M19.6238 39.2478C14.4275 39.2478 9.44392 37.1836 5.76953 33.5092C2.09513 29.8348 0.0308838 24.8512 0.0308838 19.6548C0.0308838 14.4585 2.09513 9.47491 5.76953 5.80052C9.44392 2.12613 14.4275 0.0618896 19.6238 0.0618896C24.8202 0.0618896 29.8038 2.12613 33.4782 5.80052C37.1526 9.47491 39.2168 14.4585 39.2168 19.6548C39.2168 24.8512 37.1526 29.8348 33.4782 33.5092C29.8038 37.1836 24.8202 39.2478 19.6238 39.2478Z" fill="#4F4F4F"/>
<path d="M9.16748 26.1927C11.0522 27.3988 13.232 28.0639 15.469 28.1152C17.706 28.1664 19.9141 27.602 21.8521 26.4835C23.79 25.365 25.3834 23.7354 26.458 21.7728C27.5327 19.8102 28.0473 17.59 27.9458 15.3547C28.7807 14.7452 29.503 13.995 30.0804 13.1376C29.2971 13.4833 28.4663 13.7093 27.6158 13.8079C28.5131 13.274 29.1843 12.4305 29.5029 11.4361C28.6613 11.9333 27.7404 12.2822 26.7805 12.4673C26.1352 11.7765 25.2798 11.3182 24.3472 11.1636C23.4146 11.009 22.457 11.1668 21.6233 11.6125C20.7896 12.0581 20.1265 12.7667 19.7369 13.628C19.3474 14.4894 19.2533 15.4553 19.4693 16.3756C17.7647 16.2911 16.097 15.8489 14.5745 15.0779C13.052 14.3068 11.7086 13.2242 10.6318 11.9002C10.0827 12.8431 9.91349 13.9598 10.1587 15.0231C10.4039 16.0863 11.0451 17.0162 11.9517 17.6234C11.272 17.602 10.6072 17.4181 10.0131 17.0871C9.99867 18.0877 10.3354 19.0617 10.9646 19.8398C11.5938 20.6178 12.4759 21.1508 13.4573 21.346C12.8255 21.5204 12.1617 21.5451 11.5186 21.4182C11.7888 22.2718 12.3205 23.0188 13.0386 23.5536C13.7566 24.0884 14.6245 24.3839 15.5197 24.3984C14.6315 25.1016 13.613 25.6221 12.5228 25.9301C11.4326 26.238 10.2923 26.3273 9.16748 26.1927Z" fill="#CFD1C8"/>
</g>
<defs>
<clipPath id="clip0_2889_1238">
<rect width="39.2478" height="39.2478" fill="white"/>
</clipPath>
</defs>
</svg>
