<svg width="40" height="40" viewBox="0 0 40 40" fill="none" xmlns="http://www.w3.org/2000/svg">
<g clip-path="url(#clip0_2889_1250)">
<path d="M39.9912 19.6239C39.9912 8.78592 31.2053 0 20.3673 0C9.52933 0 0.743408 8.78592 0.743408 19.6239C0.743408 30.4619 9.52933 39.2478 20.3673 39.2478C31.2053 39.2478 39.9912 30.4619 39.9912 19.6239Z" fill="#4F4F4F"/>
<path d="M33.4119 13.1221C33.2545 12.5182 32.9432 11.9669 32.5091 11.5236C32.0751 11.0803 31.5337 10.7605 30.9392 10.5965C28.7514 10 20.0003 10 20.0003 10C20.0003 10 11.2399 10 9.06132 10.5965C8.46557 10.76 7.92267 11.0794 7.48705 11.5226C7.05144 11.9659 6.73842 12.5175 6.57937 13.1221C5.8072 17.6739 5.8072 22.3261 6.57937 26.8779C6.73842 27.4825 7.05144 28.0341 7.48705 28.4774C7.92267 28.9207 8.46557 29.24 9.06132 29.4035C11.2399 30 20.0003 30 20.0003 30C20.0003 30 28.7514 30 30.9392 29.4035C31.5337 29.2395 32.0751 28.9197 32.5091 28.4764C32.9432 28.0331 33.2545 27.4818 33.4119 26.8779C34.1964 22.3271 34.1964 17.6729 33.4119 13.1221Z" fill="#CFD1C8"/>
<path d="M17.0002 24V16L25.0002 20L17.0002 24Z" fill="#4F4F4F"/>
</g>
<defs>
<clipPath id="clip0_2889_1250">
<rect width="39.2478" height="39.2478" fill="white" transform="translate(0.743408)"/>
</clipPath>
</defs>
</svg>
